<!--?xml version="1.0" encoding="utf-8"?-->
<!-- Generator: Adobe Illustrator 18.1.1, SVG Export Plug-In . SVG Version: 6.00 Build 0)  -->

<svg version="1.1" id="_x32_" xmlns="http://www.w3.org/2000/svg" xmlns:xlink="http://www.w3.org/1999/xlink" x="0px" y="0px" viewBox="0 0 512 512" style="width: 256px; height: 256px; opacity: 1;" xml:space="preserve">
<style type="text/css">
	.st0{fill:#4B4B4B;}
</style>
<g>
	<path class="st0" d="M259.732,100.243c22.749,0,41.196-18.448,41.196-41.212c0-22.749-18.448-41.189-41.196-41.189
		c-22.765,0-41.196,18.44-41.196,41.189C218.536,81.795,236.967,100.243,259.732,100.243z" style="fill: rgb(75, 75, 75);"></path>
	<path class="st0" d="M370.387,266.64l-30.32-107.633c-8.353-28.195-27.066-46.883-48.138-46.883c-15.591,0-32.197,0-32.197,0
		h-9.448c-19.012,0-36.249-11.175-44.003-28.536l-32.728-73.252c-3.52-8.643-13.284-12.578-21.935-9.042
		c-8.634,3.504-12.769,13.467-9.248,22.11l72.745,165.151l-46.759,165.84h49.615v138.451c0,10.577,8.585,19.153,19.162,19.153
		c10.578,0,19.162-8.576,19.162-19.153V354.396h10.561v138.451c0,10.577,8.585,19.153,19.162,19.153
		c10.578,0,19.162-8.576,19.162-19.153V354.396h45.912l-52.62-186.646h8.916l30.254,107.3c2.225,9.066,11.324,14.372,20.39,12.13
		C367.099,284.964,372.628,275.706,370.387,266.64z" style="fill: rgb(75, 75, 75);"></path>
</g>
</svg>
